HIERARCHY
ROOT Hips
{
	OFFSET 0.000000 71.427986 0.000000
	CHANNELS 6 Xposition Yposition Zposition Xrotation Yrotation Zrotation
	JOINT Pelvis
	{
		OFFSET 0.000000 0.000000 0.000000
		CHANNELS 3 Xrotation Yrotation Zrotation
		JOINT LeftUpLeg
		{
			OFFSET 6.797100 -2.508499 -1.318700
			CHANNELS 3 Xrotation Yrotation Zrotation
			JOINT LeftLeg
			{
				OFFSET 0.069008 -29.241863 0.690200
				CHANNELS 3 Xrotation Yrotation Zrotation
				JOINT LeftFoot
				{
					OFFSET -0.069008 -29.568123 -0.266800
					CHANNELS 3 Xrotation Yrotation Zrotation
					JOINT LeftToeBase
					{
						OFFSET 3.145500 -8.631000 16.059900
						CHANNELS 3 Xrotation Yrotation Zrotation
						End Site
						{
							OFFSET 0.000000 18.501587 0.000000
						}
					}
				}
			}
			JOINT Left_ShortSleeve
			{
				OFFSET 0.265923 -10.480953 1.153800
				CHANNELS 3 Xrotation Yrotation Zrotation
				End Site
				{
					OFFSET 1.725763 19.823879 0.000000
				}
			}
		}
		JOINT RightUpLeg
		{
			OFFSET -6.797100 -2.508499 -1.318700
			CHANNELS 3 Xrotation Yrotation Zrotation
			JOINT RightLeg
			{
				OFFSET -0.082453 -29.241932 0.688000
				CHANNELS 3 Xrotation Yrotation Zrotation
				JOINT RightFoot
				{
					OFFSET 0.082453 -29.568058 -0.264600
					CHANNELS 3 Xrotation Yrotation Zrotation
					JOINT RightToeBase
					{
						OFFSET -3.115300 -8.682800 16.113400
						CHANNELS 3 Xrotation Yrotation Zrotation
						End Site
						{
							OFFSET 0.000000 18.567114 0.000000
						}
					}
				}
			}
			JOINT Right_ShortSleeve
			{
				OFFSET -0.265923 -10.480953 1.153800
				CHANNELS 3 Xrotation Yrotation Zrotation
				End Site
				{
					OFFSET -1.725766 19.823910 0.000000
				}
			}
		}
	}
	JOINT Spine
	{
		OFFSET 0.000000 13.368103 0.470500
		CHANNELS 3 Xrotation Yrotation Zrotation
		JOINT Spine1
		{
			OFFSET 0.147000 13.837402 0.538800
			CHANNELS 3 Xrotation Yrotation Zrotation
			JOINT Spine2
			{
				OFFSET 0.168000 16.242897 -1.435500
				CHANNELS 3 Xrotation Yrotation Zrotation
				JOINT Neck
				{
					OFFSET 0.217200 18.631500 -1.679100
					CHANNELS 3 Xrotation Yrotation Zrotation
					JOINT Head
					{
						OFFSET 0.000000 6.599396 1.385900
						CHANNELS 3 Xrotation Yrotation Zrotation
						JOINT Hat
						{
							OFFSET -0.532200 27.220596 -10.096100
							CHANNELS 3 Xrotation Yrotation Zrotation
							End Site
							{
								OFFSET 0.000000 22.029861 0.000000
							}
						}
						JOINT HairD
						{
							OFFSET -10.777400 17.437393 -1.325900
							CHANNELS 3 Xrotation Yrotation Zrotation
							JOINT HairD1
							{
								OFFSET -3.290299 -11.051193 1.062200
								CHANNELS 3 Xrotation Yrotation Zrotation
								End Site
								{
									OFFSET 0.000000 11.579437 0.000000
								}
							}
						}
						JOINT HairB
						{
							OFFSET -10.777400 17.437393 1.467900
							CHANNELS 3 Xrotation Yrotation Zrotation
							JOINT HairB1
							{
								OFFSET -1.561200 -12.956299 3.590200
								CHANNELS 3 Xrotation Yrotation Zrotation
								End Site
								{
									OFFSET 0.000000 13.534866 0.000000
								}
							}
						}
						JOINT HairA
						{
							OFFSET 9.713100 17.437393 1.467900
							CHANNELS 3 Xrotation Yrotation Zrotation
							JOINT HairA1
							{
								OFFSET 1.561200 -12.956299 3.590200
								CHANNELS 3 Xrotation Yrotation Zrotation
								End Site
								{
									OFFSET 0.000000 13.534866 0.000000
								}
							}
						}
						JOINT HairC
						{
							OFFSET 9.713100 17.437393 -1.325900
							CHANNELS 3 Xrotation Yrotation Zrotation
							JOINT HairC1
							{
								OFFSET 3.290300 -11.051193 1.062200
								CHANNELS 3 Xrotation Yrotation Zrotation
								End Site
								{
									OFFSET 0.000000 11.579437 0.000000
								}
							}
						}
					}
				}
				JOINT LeftShoulder
				{
					OFFSET 5.101800 15.108002 -2.763700
					CHANNELS 3 Xrotation Yrotation Zrotation
					JOINT LeftArm
					{
						OFFSET 9.825497 2.506317 -1.597400
						CHANNELS 3 Xrotation Yrotation Zrotation
						JOINT LeftForeArm
						{
							OFFSET 21.966244 0.000000 0.000000
							CHANNELS 3 Xrotation Yrotation Zrotation
							JOINT LeftHand
							{
								OFFSET 33.879036 0.000000 0.000000
								CHANNELS 3 Xrotation Yrotation Zrotation
								JOINT LeftHandThumb1
								{
									OFFSET 6.715286 -2.359680 3.363841
									CHANNELS 3 Xrotation Yrotation Zrotation
									JOINT LeftHandThumb2
									{
										OFFSET 2.507072 -1.447464 1.447461
										CHANNELS 3 Xrotation Yrotation Zrotation
										JOINT LeftHandThumb3
										{
											OFFSET 2.898338 -1.673355 1.673357
											CHANNELS 3 Xrotation Yrotation Zrotation
											End Site
											{
												OFFSET -0.295959 3.727692 -0.131651
											}
										}
									}
								}
								JOINT LeftHandIndex1
								{
									OFFSET 14.190811 -0.254547 3.840278
									CHANNELS 3 Xrotation Yrotation Zrotation
									JOINT LeftHandIndex2
									{
										OFFSET 3.551727 0.000000 -0.000000
										CHANNELS 3 Xrotation Yrotation Zrotation
										JOINT LeftHandIndex3
										{
											OFFSET 2.894196 0.000000 0.000000
											CHANNELS 3 Xrotation Yrotation Zrotation
											End Site
											{
												OFFSET -1.000603 2.690872 0.366626
											}
										}
									}
								}
								JOINT LeftHandMiddle1
								{
									OFFSET 13.776489 0.000000 0.000000
									CHANNELS 3 Xrotation Yrotation Zrotation
									JOINT LeftHandMiddle2
									{
										OFFSET 3.438232 0.000000 0.000000
										CHANNELS 3 Xrotation Yrotation Zrotation
										JOINT LeftHandMiddle3
										{
											OFFSET 3.691551 0.000000 0.000000
											CHANNELS 3 Xrotation Yrotation Zrotation
											End Site
											{
												OFFSET -1.082298 3.499527 0.457670
											}
										}
									}
								}
								JOINT LeftHandRing1
								{
									OFFSET 13.966164 -0.268127 -3.067488
									CHANNELS 3 Xrotation Yrotation Zrotation
									JOINT LeftHandRing2
									{
										OFFSET 3.162567 0.000000 0.000000
										CHANNELS 3 Xrotation Yrotation Zrotation
										JOINT LeftHandRing3
										{
											OFFSET 3.324348 0.000000 0.000000
											CHANNELS 3 Xrotation Yrotation Zrotation
											End Site
											{
												OFFSET -0.861900 3.184998 0.405154
											}
										}
									}
								}
								JOINT LeftHandPinky1
								{
									OFFSET 13.131393 -0.168503 -5.746925
									CHANNELS 3 Xrotation Yrotation Zrotation
									JOINT LeftHandPinky2
									{
										OFFSET 2.849182 0.000000 0.000000
										CHANNELS 3 Xrotation Yrotation Zrotation
										JOINT LeftHandPinky3
										{
											OFFSET 2.805038 0.000000 0.000000
											CHANNELS 3 Xrotation Yrotation Zrotation
											End Site
											{
												OFFSET -0.882500 2.642609 0.325652
											}
										}
									}
								}
							}
							JOINT Left_Sleeve
							{
								OFFSET 6.592125 -0.646545 0.805568
								CHANNELS 3 Xrotation Yrotation Zrotation
								End Site
								{
									OFFSET -0.000179 20.275787 -0.000000
								}
							}
						}
					}
				}
				JOINT RightShoulder
				{
					OFFSET -5.731700 15.108002 -2.763700
					CHANNELS 3 Xrotation Yrotation Zrotation
					JOINT RightArm
					{
						OFFSET -9.825497 2.506317 -1.597400
						CHANNELS 3 Xrotation Yrotation Zrotation
						JOINT RightForeArm
						{
							OFFSET -21.966242 0.000000 0.000000
							CHANNELS 3 Xrotation Yrotation Zrotation
							JOINT RightHand
							{
								OFFSET -33.879032 0.000000 0.000000
								CHANNELS 3 Xrotation Yrotation Zrotation
								JOINT RightHandThumb1
								{
									OFFSET -6.715286 -2.359680 3.363841
									CHANNELS 3 Xrotation Yrotation Zrotation
									JOINT RightHandThumb2
									{
										OFFSET -2.507072 -1.447464 1.447461
										CHANNELS 3 Xrotation Yrotation Zrotation
										JOINT RightHandThumb3
										{
											OFFSET -2.898338 -1.673355 1.673357
											CHANNELS 3 Xrotation Yrotation Zrotation
											End Site
											{
												OFFSET 0.295959 3.727692 -0.131651
											}
										}
									}
								}
								JOINT RightHandIndex1
								{
									OFFSET -14.190811 -0.254547 3.840278
									CHANNELS 3 Xrotation Yrotation Zrotation
									JOINT RightHandIndex2
									{
										OFFSET -3.551727 0.000000 -0.000000
										CHANNELS 3 Xrotation Yrotation Zrotation
										JOINT RightHandIndex3
										{
											OFFSET -2.894196 0.000000 0.000000
											CHANNELS 3 Xrotation Yrotation Zrotation
											End Site
											{
												OFFSET 1.000603 2.690872 0.366626
											}
										}
									}
								}
								JOINT RightHandMiddle1
								{
									OFFSET -13.776489 0.000000 0.000000
									CHANNELS 3 Xrotation Yrotation Zrotation
									JOINT RightHandMiddle2
									{
										OFFSET -3.438232 0.000000 0.000000
										CHANNELS 3 Xrotation Yrotation Zrotation
										JOINT RightHandMiddle3
										{
											OFFSET -3.691551 0.000000 0.000000
											CHANNELS 3 Xrotation Yrotation Zrotation
											End Site
											{
												OFFSET 1.082298 3.499527 0.457670
											}
										}
									}
								}
								JOINT RightHandRing1
								{
									OFFSET -13.966164 -0.268127 -3.067488
									CHANNELS 3 Xrotation Yrotation Zrotation
									JOINT RightHandRing2
									{
										OFFSET -3.162567 0.000000 0.000000
										CHANNELS 3 Xrotation Yrotation Zrotation
										JOINT RightHandRing3
										{
											OFFSET -3.324348 0.000000 0.000000
											CHANNELS 3 Xrotation Yrotation Zrotation
											End Site
											{
												OFFSET 0.861900 3.184998 0.405154
											}
										}
									}
								}
								JOINT RightHandPinky1
								{
									OFFSET -13.131393 -0.168503 -5.746925
									CHANNELS 3 Xrotation Yrotation Zrotation
									JOINT RightHandPinky2
									{
										OFFSET -2.849182 0.000000 0.000000
										CHANNELS 3 Xrotation Yrotation Zrotation
										JOINT RightHandPinky3
										{
											OFFSET -2.805038 0.000000 0.000000
											CHANNELS 3 Xrotation Yrotation Zrotation
											End Site
											{
												OFFSET 0.882500 2.642609 0.325652
											}
										}
									}
								}
							}
							JOINT Right_Sleeve
							{
								OFFSET -6.592125 -0.646545 0.805568
								CHANNELS 3 Xrotation Yrotation Zrotation
								End Site
								{
									OFFSET 0.000179 20.275787 -0.000000
								}
							}
						}
					}
				}
				JOINT Bind_Right_JacketString
				{
					OFFSET -3.534800 11.969597 7.200700
					CHANNELS 3 Xrotation Yrotation Zrotation
					JOINT Bind_Right_JacketString1
					{
						OFFSET -0.319900 -6.102600 2.794100
						CHANNELS 3 Xrotation Yrotation Zrotation
						End Site
						{
							OFFSET 0.000000 6.719452 0.000000
						}
					}
				}
				JOINT Bind_Left_JacketString
				{
					OFFSET 2.904800 11.969597 7.200700
					CHANNELS 3 Xrotation Yrotation Zrotation
					JOINT Bind_Left_JacketString1
					{
						OFFSET 0.364800 -5.904503 3.186800
						CHANNELS 3 Xrotation Yrotation Zrotation
						End Site
						{
							OFFSET 0.000000 6.719513 0.000000
						}
					}
				}
				JOINT HairE
				{
					OFFSET 5.915200 17.612701 -11.592200
					CHANNELS 3 Xrotation Yrotation Zrotation
					JOINT HairE1
					{
						OFFSET 0.289200 -7.171898 -1.284500
						CHANNELS 3 Xrotation Yrotation Zrotation
						End Site
						{
							OFFSET 0.000000 7.291756 0.000000
						}
					}
				}
				JOINT HairF
				{
					OFFSET -0.864800 17.612701 -11.592200
					CHANNELS 3 Xrotation Yrotation Zrotation
					JOINT HairF1
					{
						OFFSET 0.000000 -14.087097 -2.127501
						CHANNELS 3 Xrotation Yrotation Zrotation
						End Site
						{
							OFFSET 0.000000 14.246841 0.000000
						}
					}
				}
				JOINT HairG
				{
					OFFSET -8.087700 17.612701 -11.592200
					CHANNELS 3 Xrotation Yrotation Zrotation
					JOINT HairG1
					{
						OFFSET -0.293600 -6.081398 -0.910100
						CHANNELS 3 Xrotation Yrotation Zrotation
						End Site
						{
							OFFSET 0.000000 6.156120 0.000000
						}
					}
				}
			}
		}
	}
	JOINT Pouch
	{
		OFFSET 0.000000 4.394501 10.847300
		CHANNELS 3 Xrotation Yrotation Zrotation
		End Site
		{
			OFFSET 0.000000 21.880577 0.000000
		}
	}
	JOINT Bag
	{
		OFFSET -13.229000 4.813004 -0.593300
		CHANNELS 3 Xrotation Yrotation Zrotation
		End Site
		{
			OFFSET 0.000000 21.880577 0.000000
		}
	}
	JOINT OccupyGuyFacialAnim_Joint
	{
		OFFSET 1.000000 -70.206398 -1.655000
		CHANNELS 3 Xrotation Yrotation Zrotation
		End Site
		{
			OFFSET 0.000000 21.880577 0.000000
		}
	}
}
MOTION
Frames: 4
Frame Time: 0.016667
0.898518 63.130352 -1.831141 21.194217 -4.700212 -27.891105 0.000001 -0.000000 -0.000001 -72.079710 -5.782321 27.485965 63.133822 -8.992508 9.923758 -17.423220 -3.006005 -2.368796 -0.000000 -0.000000 -0.000000 -0.000003 0.000000 0.000001 -33.635038 -32.455508 13.214440 40.478549 -10.765976 0.900220 -15.777896 -8.450319 8.388289 0.000000 0.000000 0.000000 -0.000003 0.000000 -0.000000 9.651661 2.144488 -15.916475 6.445037 2.740809 -10.688253 6.249397 2.693588 -10.811388 -0.796402 4.356713 -3.690204 -8.154898 18.426614 -3.530653 0.000001 0.000000 -0.000001 0.000001 0.000000 -0.000001 0.000001 0.000000 -0.000001 0.000001 0.000000 -0.000001 0.000000 -0.000001 -0.000000 0.000001 0.000000 -0.000001 0.000000 -0.000001 -0.000000 0.000001 0.000000 -0.000001 0.000001 0.000000 -0.000001 0.763385 -2.243207 16.026718 -56.139630 -44.766641 -98.210040 -0.000004 -55.603897 0.000011 -74.109690 -27.707897 14.239165 35.234555 -17.219554 -17.236896 29.406854 28.726515 -29.411802 0.000003 -0.000000 -0.000002 0.797679 3.221918 -27.804756 0.799601 3.225517 -27.838618 -0.000001 0.000001 -0.000002 0.796775 3.220221 -27.788731 0.800505 3.227232 -27.854649 0.000003 0.000000 0.000001 0.797688 3.221892 -27.804752 0.799596 3.225530 -27.838620 -0.000004 0.000001 -0.000001 2.684963 6.814118 -27.459502 0.809055 -0.835566 -28.291875 -0.000000 0.000000 0.000001 -0.000001 0.000000 -0.000001 -0.201830 -4.974898 1.334797 -165.753282 118.380183 181.246829 -0.000135 71.160141 0.000137 -23.198497 1.097487 -16.760418 40.606643 -3.110578 26.124248 -37.849480 -44.265011 -46.874956 -0.000002 -0.000001 -0.000001 3.635334 -6.111025 61.464490 7.728589 -6.904455 96.464449 0.000001 0.000000 -0.000003 3.635329 -6.111020 61.464490 7.728621 -6.904472 96.464462 0.000001 -0.000001 -0.000001 3.635317 -6.110980 61.464490 7.728630 -6.904482 96.464462 -0.000000 0.000002 0.000002 3.635331 -6.111020 61.464504 7.728638 -6.904482 96.464462 -0.000000 0.000000 0.000001 0.000004 -0.000001 -0.000001 -0.000001 -0.000001 -0.000000 -0.000001 -0.000001 -0.000000 -0.000001 -0.000001 -0.000000 -0.000001 -0.000001 -0.000000 -0.000001 -0.000001 -0.000000 -0.000001 -0.000001 -0.000000 -0.000001 -0.000001 -0.000000 -0.000001 -0.000001 -0.000000 -0.000001 -0.000001 -0.000000 -0.000001 -0.000001 -0.000000 0.000001 -0.000000 -0.000001 0.000001 -0.000000 -0.000001 0.000001 -0.000000 -0.000001 
0.926271 63.168877 -1.847128 20.993266 -4.966029 -27.527040 -0.000002 0.000001 0.000001 -71.895104 -5.233101 27.646663 63.025086 -9.027842 9.926376 -17.431078 -2.949269 -2.306820 0.000000 0.000000 -0.000000 -0.000000 0.000001 0.000002 -33.703486 -32.101165 12.946982 40.458192 -10.744656 0.976979 -15.707912 -8.305723 8.323373 0.000000 0.000000 0.000000 0.000000 0.000000 0.000000 9.712852 2.108566 -15.833079 6.493372 2.713990 -10.616031 6.300748 2.667747 -10.739119 0.207073 4.314706 -3.404726 -7.207432 18.522087 -2.767393 0.000000 -0.000001 -0.000002 0.000000 -0.000001 -0.000002 0.000000 -0.000001 -0.000003 0.000000 -0.000001 -0.000002 -0.000000 0.000001 -0.000000 0.000000 -0.000001 -0.000002 -0.000000 0.000001 -0.000000 0.000000 -0.000001 -0.000002 0.000000 -0.000001 -0.000002 0.722176 -2.099713 15.969377 -55.551445 -45.310819 -97.712597 -0.000031 -55.603003 -0.000027 -74.614762 -26.963282 14.427166 35.234555 -17.219554 -17.236899 29.406854 28.726522 -29.411799 -0.000004 -0.000002 0.000001 0.797680 3.221919 -27.804752 0.799603 3.225518 -27.838625 0.000003 0.000001 0.000000 0.796775 3.220222 -27.788729 0.800504 3.227232 -27.854649 0.000001 0.000000 0.000002 0.797690 3.221892 -27.804752 0.799595 3.225530 -27.838618 0.000001 0.000000 -0.000002 2.684961 6.814119 -27.459498 0.809054 -0.835565 -28.291875 0.000000 -0.000003 0.000004 0.000000 -0.000000 -0.000001 -0.173793 -4.568112 0.662830 -166.330515 118.064615 182.610134 0.000039 70.533943 -0.000048 -24.020028 1.292606 -16.773075 40.606649 -3.110580 26.124242 -37.849476 -44.265011 -46.874950 0.000001 -0.000002 -0.000002 3.635332 -6.111024 61.464497 7.728590 -6.904457 96.464456 -0.000000 -0.000003 0.000002 3.635329 -6.111020 61.464490 7.728620 -6.904474 96.464456 0.000001 0.000000 -0.000004 3.635318 -6.110978 61.464490 7.728631 -6.904484 96.464462 0.000001 -0.000001 0.000001 3.635328 -6.111021 61.464510 7.728632 -6.904479 96.464469 -0.000002 0.000002 -0.000003 -0.000002 0.000000 0.000000 -0.000001 0.000000 0.000001 -0.000001 0.000001 -0.000002 -0.000001 0.000000 -0.000000 -0.000001 0.000000 -0.000000 -0.000001 0.000000 0.000001 -0.000001 0.000001 -0.000002 -0.000001 0.000000 -0.000000 -0.000001 0.000000 -0.000000 -0.000001 0.000000 0.000001 -0.000001 0.000001 -0.000002 -0.000002 0.000001 0.000001 -0.000002 0.000001 0.000001 -0.000002 0.000001 0.000001 
0.938694 63.205765 -1.859413 20.762814 -5.288030 -27.181814 -0.000000 0.000000 -0.000001 -71.675807 -4.738070 27.856802 62.939715 -9.075784 9.930229 -17.459096 -2.817828 -2.274533 0.000000 0.000000 0.000000 -0.000000 -0.000000 -0.000000 -33.729865 -31.716065 12.762130 40.430670 -10.734331 1.032567 -15.640155 -8.149575 8.256702 0.000000 0.000000 -0.000000 -0.000000 -0.000000 0.000000 9.760906 2.074295 -15.752073 6.534459 2.691596 -10.541845 6.345195 2.646788 -10.664546 1.163593 4.299129 -3.121157 -6.113500 18.694854 -2.004244 0.000001 0.000000 -0.000000 0.000001 0.000000 -0.000000 0.000001 0.000000 -0.000001 0.000001 0.000000 -0.000001 0.000001 0.000002 0.000000 0.000001 0.000000 -0.000001 0.000001 0.000002 0.000000 0.000001 0.000000 -0.000000 0.000001 0.000000 -0.000000 0.658045 -1.924513 15.859505 -54.937950 -45.760031 -97.271531 0.000014 -55.536005 0.000010 -74.975478 -26.281407 14.629526 35.234555 -17.219557 -17.236898 29.406854 28.726519 -29.411802 0.000001 0.000002 -0.000004 0.797679 3.221922 -27.804756 0.799602 3.225518 -27.838625 0.000001 0.000000 -0.000002 0.796775 3.220222 -27.788729 0.800508 3.227231 -27.854649 0.000001 -0.000000 0.000001 0.797688 3.221894 -27.804756 0.799600 3.225530 -27.838620 0.000000 -0.000000 0.000000 2.684962 6.814122 -27.459498 0.809053 -0.835568 -28.291871 0.000000 0.000000 0.000001 -0.000003 -0.000001 -0.000000 -0.134076 -4.148866 0.057177 -166.688854 117.680034 183.667489 -0.000005 69.803721 0.000008 -24.844057 1.637656 -16.745384 40.606643 -3.110582 26.124248 -37.849480 -44.265015 -46.874950 -0.000002 -0.000001 -0.000001 3.635330 -6.111027 61.464497 7.728590 -6.904455 96.464449 -0.000003 0.000001 -0.000001 3.635327 -6.111021 61.464490 7.728619 -6.904471 96.464462 0.000001 0.000000 0.000001 3.635317 -6.110979 61.464490 7.728631 -6.904482 96.464469 0.000002 0.000002 -0.000003 3.635325 -6.111024 61.464504 7.728631 -6.904476 96.464469 0.000001 0.000002 -0.000003 0.000000 -0.000001 -0.000001 -0.000002 -0.000000 0.000001 -0.000001 -0.000003 -0.000002 -0.000002 -0.000000 0.000002 -0.000002 -0.000000 0.000002 -0.000002 -0.000000 0.000001 -0.000001 -0.000003 -0.000002 -0.000002 -0.000000 0.000002 -0.000002 -0.000000 0.000002 -0.000002 -0.000000 0.000001 -0.000001 -0.000003 -0.000002 -0.000000 0.000000 -0.000001 -0.000000 0.000000 -0.000001 -0.000000 0.000000 -0.000001 
0.939808 63.239502 -1.875399 20.518247 -5.663592 -26.855327 0.000001 -0.000000 -0.000000 -71.438205 -4.305377 28.096234 62.875020 -9.134612 9.934577 -17.497345 -2.605738 -2.267932 0.000000 0.000000 -0.000000 -0.000001 0.000001 0.000001 -33.737060 -31.331655 12.652645 40.398513 -10.735053 1.046317 -15.567919 -7.968596 8.195664 0.000000 -0.000000 0.000000 -0.000000 -0.000001 -0.000000 9.800521 2.035395 -15.667062 6.573799 2.667608 -10.462882 6.388354 2.625527 -10.584650 2.049146 4.309118 -2.841962 -4.886950 18.949342 -1.267599 0.000000 -0.000001 0.000003 0.000000 -0.000001 0.000003 0.000000 -0.000001 0.000002 0.000000 -0.000001 0.000002 0.000000 -0.000001 -0.000002 0.000000 -0.000001 0.000002 0.000000 -0.000001 -0.000002 0.000000 -0.000001 0.000003 0.000000 -0.000001 0.000003 0.564458 -1.708722 15.694789 -54.281439 -46.142494 -96.841352 -0.000053 -55.447923 -0.000074 -75.196551 -25.642190 14.844981 35.234555 -17.219554 -17.236901 29.406850 28.726515 -29.411805 -0.000001 0.000001 -0.000004 0.797680 3.221922 -27.804758 0.799605 3.225516 -27.838625 0.000001 -0.000001 -0.000000 0.796777 3.220221 -27.788731 0.800504 3.227233 -27.854645 0.000002 0.000000 -0.000001 0.797687 3.221894 -27.804756 0.799597 3.225530 -27.838625 -0.000003 0.000001 -0.000001 2.684960 6.814120 -27.459502 0.809052 -0.835566 -28.291866 -0.000000 -0.000000 0.000001 0.000002 0.000001 -0.000004 -0.081820 -3.700183 -0.513602 -166.971105 117.245238 184.572298 -0.000022 69.013406 0.000010 -25.647666 2.088061 -16.706909 40.606639 -3.110578 26.124244 -37.849480 -44.265018 -46.874956 0.000001 -0.000001 -0.000001 3.635332 -6.111025 61.464497 7.728590 -6.904456 96.464456 0.000002 -0.000000 -0.000002 3.635331 -6.111017 61.464490 7.728617 -6.904470 96.464462 -0.000001 0.000001 -0.000002 3.635320 -6.110978 61.464497 7.728634 -6.904483 96.464469 0.000000 -0.000001 0.000001 3.635328 -6.111021 61.464504 7.728638 -6.904481 96.464469 -0.000001 0.000001 0.000001 0.000001 0.000000 0.000000 0.000003 -0.000002 -0.000000 0.000002 0.000002 -0.000000 0.000003 -0.000002 -0.000002 0.000003 -0.000002 -0.000002 0.000003 -0.000002 -0.000000 0.000002 0.000002 -0.000000 0.000003 -0.000002 -0.000002 0.000003 -0.000002 -0.000002 0.000003 -0.000002 -0.000000 0.000002 0.000002 -0.000000 0.000001 -0.000000 -0.000000 0.000001 -0.000000 -0.000000 0.000001 -0.000000 -0.000000 
